<svg width="20" height="20" viewBox="0 0 20 20" fill="none" xmlns="http://www.w3.org/2000/svg">
<path fill-rule="evenodd" clip-rule="evenodd" d="M16.9059 4.36898C17.2301 4.36898 17.5 4.63814 17.5 4.98064V5.2973C17.5 5.63146 17.2301 5.90896 16.9059 5.90896H3.09488C2.76988 5.90896 2.5 5.63146 2.5 5.2973V4.98064C2.5 4.63814 2.76988 4.36898 3.09488 4.36898H5.52464C6.01821 4.36898 6.44775 4.01815 6.55879 3.52315L6.68603 2.95482C6.88378 2.18067 7.53458 1.6665 8.27939 1.6665H11.7206C12.4573 1.6665 13.1154 2.18067 13.3059 2.91399L13.442 3.52232C13.5522 4.01815 13.9818 4.36898 14.4762 4.36898H16.9059ZM15.6715 15.9447C15.9252 13.5805 16.3694 7.96393 16.3694 7.90727C16.3856 7.7356 16.3296 7.5731 16.2186 7.44227C16.0995 7.31977 15.9487 7.24727 15.7826 7.24727H4.22379C4.05684 7.24727 3.89799 7.31977 3.78776 7.44227C3.67592 7.5731 3.62081 7.7356 3.62891 7.90727C3.6304 7.91768 3.64634 8.11552 3.67298 8.44628C3.79134 9.91564 4.121 14.0081 4.33401 15.9447C4.48476 17.3713 5.42084 18.268 6.77674 18.3005C7.82305 18.3247 8.90096 18.333 10.0032 18.333C11.0414 18.333 12.0958 18.3247 13.1745 18.3005C14.5774 18.2763 15.5127 17.3955 15.6715 15.9447Z" fill="#CF3636"/>
</svg>
